<mxfile host="app.diagrams.net" modified="2023-10-28T08:45:59.972Z" agent="Mozilla/5.0 (Macintosh; Intel Mac OS X 10_15_7) AppleWebKit/605.1.15 (KHTML, like Gecko) Version/16.6 Safari/605.1.15" etag="Z4XMMFDJ1rpfQreiZI6e" version="22.0.8" type="device">
  <diagram id="C5RBs43oDa-KdzZeNtuy" name="Page-1">
    <mxGraphModel dx="1224" dy="816" grid="1" gridSize="10" guides="1" tooltips="1" connect="1" arrows="1" fold="1" page="1" pageScale="1" pageWidth="827" pageHeight="1169" math="0" shadow="0">
      <root>
        <mxCell id="WIyWlLk6GJQsqaUBKTNV-0" />
        <mxCell id="WIyWlLk6GJQsqaUBKTNV-1" parent="WIyWlLk6GJQsqaUBKTNV-0" />
        <mxCell id="WIyWlLk6GJQsqaUBKTNV-2" value="" style="rounded=0;html=1;jettySize=auto;orthogonalLoop=1;fontSize=11;endArrow=block;endFill=0;endSize=8;strokeWidth=1;shadow=0;labelBackgroundColor=none;edgeStyle=orthogonalEdgeStyle;" parent="WIyWlLk6GJQsqaUBKTNV-1" source="WIyWlLk6GJQsqaUBKTNV-3" target="WIyWlLk6GJQsqaUBKTNV-6" edge="1">
          <mxGeometry relative="1" as="geometry" />
        </mxCell>
        <mxCell id="WIyWlLk6GJQsqaUBKTNV-3" value="輸入手機號碼" style="rounded=1;whiteSpace=wrap;html=1;fontSize=12;glass=0;strokeWidth=1;shadow=0;fillColor=#d5e8d4;strokeColor=#82b366;" parent="WIyWlLk6GJQsqaUBKTNV-1" vertex="1">
          <mxGeometry x="160" y="80" width="120" height="40" as="geometry" />
        </mxCell>
        <mxCell id="WIyWlLk6GJQsqaUBKTNV-6" value="判斷是否空值" style="rhombus;whiteSpace=wrap;html=1;shadow=0;fontFamily=Helvetica;fontSize=12;align=center;strokeWidth=1;spacing=6;spacingTop=-4;fillColor=#fff2cc;strokeColor=#d6b656;" parent="WIyWlLk6GJQsqaUBKTNV-1" vertex="1">
          <mxGeometry x="170" y="170" width="100" height="80" as="geometry" />
        </mxCell>
        <mxCell id="WIyWlLk6GJQsqaUBKTNV-7" value="回傳錯誤訊息&lt;br&gt;&quot;輸入的資料為空&quot;" style="rounded=1;whiteSpace=wrap;html=1;fontSize=12;glass=0;strokeWidth=1;shadow=0;fillColor=#d5e8d4;strokeColor=#82b366;" parent="WIyWlLk6GJQsqaUBKTNV-1" vertex="1">
          <mxGeometry x="320" y="190" width="150" height="40" as="geometry" />
        </mxCell>
        <mxCell id="WIyWlLk6GJQsqaUBKTNV-8" value="false" style="rounded=0;html=1;jettySize=auto;orthogonalLoop=1;fontSize=11;endArrow=block;endFill=0;endSize=8;strokeWidth=1;shadow=0;labelBackgroundColor=none;edgeStyle=orthogonalEdgeStyle;exitX=0.5;exitY=1;exitDx=0;exitDy=0;exitPerimeter=0;" parent="WIyWlLk6GJQsqaUBKTNV-1" target="WIyWlLk6GJQsqaUBKTNV-11" edge="1">
          <mxGeometry x="0.3333" y="20" relative="1" as="geometry">
            <mxPoint as="offset" />
            <mxPoint x="220" y="730" as="sourcePoint" />
            <Array as="points">
              <mxPoint x="220" y="770" />
              <mxPoint x="220" y="770" />
            </Array>
          </mxGeometry>
        </mxCell>
        <mxCell id="WIyWlLk6GJQsqaUBKTNV-9" value="false" style="edgeStyle=orthogonalEdgeStyle;rounded=0;html=1;jettySize=auto;orthogonalLoop=1;fontSize=11;endArrow=block;endFill=0;endSize=8;strokeWidth=1;shadow=0;labelBackgroundColor=none;" parent="WIyWlLk6GJQsqaUBKTNV-1" source="WIyWlLk6GJQsqaUBKTNV-10" target="WIyWlLk6GJQsqaUBKTNV-12" edge="1">
          <mxGeometry y="10" relative="1" as="geometry">
            <mxPoint as="offset" />
          </mxGeometry>
        </mxCell>
        <mxCell id="WIyWlLk6GJQsqaUBKTNV-10" value="判斷長度&lt;br&gt;是否10碼" style="rhombus;whiteSpace=wrap;html=1;shadow=0;fontFamily=Helvetica;fontSize=12;align=center;strokeWidth=1;spacing=6;spacingTop=-4;fillColor=#fff2cc;strokeColor=#d6b656;" parent="WIyWlLk6GJQsqaUBKTNV-1" vertex="1">
          <mxGeometry x="170" y="300" width="100" height="80" as="geometry" />
        </mxCell>
        <mxCell id="WIyWlLk6GJQsqaUBKTNV-11" value="回傳錯誤訊息&lt;br&gt;&quot;格式錯誤&quot;" style="rounded=1;whiteSpace=wrap;html=1;fontSize=12;glass=0;strokeWidth=1;shadow=0;fillColor=#d5e8d4;strokeColor=#82b366;" parent="WIyWlLk6GJQsqaUBKTNV-1" vertex="1">
          <mxGeometry x="160" y="780" width="140" height="40" as="geometry" />
        </mxCell>
        <mxCell id="WIyWlLk6GJQsqaUBKTNV-12" value="回傳錯誤訊息&lt;br&gt;&quot;長度錯誤&quot;" style="rounded=1;whiteSpace=wrap;html=1;fontSize=12;glass=0;strokeWidth=1;shadow=0;fillColor=#d5e8d4;strokeColor=#82b366;" parent="WIyWlLk6GJQsqaUBKTNV-1" vertex="1">
          <mxGeometry x="320" y="320" width="150" height="40" as="geometry" />
        </mxCell>
        <mxCell id="4y3r99vegQgZiO8xR9hq-0" value="false" style="rounded=0;html=1;jettySize=auto;orthogonalLoop=1;fontSize=11;endArrow=block;endFill=0;endSize=8;strokeWidth=1;shadow=0;labelBackgroundColor=none;edgeStyle=orthogonalEdgeStyle;entryX=0.5;entryY=0;entryDx=0;entryDy=0;" parent="WIyWlLk6GJQsqaUBKTNV-1" target="WIyWlLk6GJQsqaUBKTNV-10" edge="1">
          <mxGeometry x="0.3333" y="20" relative="1" as="geometry">
            <mxPoint as="offset" />
            <mxPoint x="220" y="250" as="sourcePoint" />
            <mxPoint x="219.83" y="290" as="targetPoint" />
            <Array as="points" />
          </mxGeometry>
        </mxCell>
        <mxCell id="4y3r99vegQgZiO8xR9hq-1" value="true" style="edgeStyle=orthogonalEdgeStyle;rounded=0;html=1;jettySize=auto;orthogonalLoop=1;fontSize=11;endArrow=block;endFill=0;endSize=8;strokeWidth=1;shadow=0;labelBackgroundColor=none;" parent="WIyWlLk6GJQsqaUBKTNV-1" edge="1">
          <mxGeometry y="10" relative="1" as="geometry">
            <mxPoint as="offset" />
            <mxPoint x="270" y="209.82999999999998" as="sourcePoint" />
            <mxPoint x="320" y="209.82999999999998" as="targetPoint" />
          </mxGeometry>
        </mxCell>
        <mxCell id="4y3r99vegQgZiO8xR9hq-8" value="&lt;font style=&quot;font-size: 9px&quot;&gt;判斷第一、二碼&lt;br&gt;是否為09&lt;/font&gt;" style="rhombus;whiteSpace=wrap;html=1;shadow=0;fontFamily=Helvetica;fontSize=12;align=center;strokeWidth=1;spacing=6;spacingTop=-4;fillColor=#fff2cc;strokeColor=#d6b656;" parent="WIyWlLk6GJQsqaUBKTNV-1" vertex="1">
          <mxGeometry x="170" y="430" width="100" height="80" as="geometry" />
        </mxCell>
        <mxCell id="4y3r99vegQgZiO8xR9hq-9" value="true" style="rounded=0;html=1;jettySize=auto;orthogonalLoop=1;fontSize=11;endArrow=block;endFill=0;endSize=8;strokeWidth=1;shadow=0;labelBackgroundColor=none;edgeStyle=orthogonalEdgeStyle;entryX=0.5;entryY=0;entryDx=0;entryDy=0;" parent="WIyWlLk6GJQsqaUBKTNV-1" target="4y3r99vegQgZiO8xR9hq-8" edge="1">
          <mxGeometry x="0.3333" y="20" relative="1" as="geometry">
            <mxPoint as="offset" />
            <mxPoint x="220" y="380" as="sourcePoint" />
            <mxPoint x="219.83000000000004" y="420" as="targetPoint" />
            <Array as="points" />
          </mxGeometry>
        </mxCell>
        <mxCell id="4y3r99vegQgZiO8xR9hq-12" value="&lt;font style=&quot;font-size: 9px&quot;&gt;判斷每個號碼是否&lt;br&gt;皆為數字0-9&lt;br&gt;&lt;/font&gt;" style="rhombus;whiteSpace=wrap;html=1;shadow=0;fontFamily=Helvetica;fontSize=12;align=center;strokeWidth=1;spacing=6;spacingTop=-4;fillColor=#fff2cc;strokeColor=#d6b656;" parent="WIyWlLk6GJQsqaUBKTNV-1" vertex="1">
          <mxGeometry x="170" y="650" width="100" height="80" as="geometry" />
        </mxCell>
        <mxCell id="4y3r99vegQgZiO8xR9hq-13" value="true" style="rounded=0;html=1;jettySize=auto;orthogonalLoop=1;fontSize=11;endArrow=block;endFill=0;endSize=8;strokeWidth=1;shadow=0;labelBackgroundColor=none;edgeStyle=orthogonalEdgeStyle;" parent="WIyWlLk6GJQsqaUBKTNV-1" edge="1">
          <mxGeometry x="0.3333" y="20" relative="1" as="geometry">
            <mxPoint as="offset" />
            <mxPoint x="220" y="510" as="sourcePoint" />
            <mxPoint x="220" y="560" as="targetPoint" />
            <Array as="points">
              <mxPoint x="220" y="530" />
            </Array>
          </mxGeometry>
        </mxCell>
        <mxCell id="4y3r99vegQgZiO8xR9hq-14" value="true" style="edgeStyle=orthogonalEdgeStyle;rounded=0;html=1;jettySize=auto;orthogonalLoop=1;fontSize=11;endArrow=block;endFill=0;endSize=8;strokeWidth=1;shadow=0;labelBackgroundColor=none;entryX=0;entryY=0.5;entryDx=0;entryDy=0;" parent="WIyWlLk6GJQsqaUBKTNV-1" target="4y3r99vegQgZiO8xR9hq-35" edge="1">
          <mxGeometry x="-0.8334" y="10" relative="1" as="geometry">
            <mxPoint as="offset" />
            <mxPoint x="170" y="690" as="sourcePoint" />
            <mxPoint x="220" y="620" as="targetPoint" />
            <Array as="points">
              <mxPoint x="50" y="690" />
              <mxPoint x="50" y="580" />
            </Array>
          </mxGeometry>
        </mxCell>
        <mxCell id="4y3r99vegQgZiO8xR9hq-21" value="1" style="ellipse;whiteSpace=wrap;html=1;aspect=fixed;" parent="WIyWlLk6GJQsqaUBKTNV-1" vertex="1">
          <mxGeometry x="140" y="200" width="20" height="20" as="geometry" />
        </mxCell>
        <mxCell id="4y3r99vegQgZiO8xR9hq-24" value="3" style="ellipse;whiteSpace=wrap;html=1;aspect=fixed;" parent="WIyWlLk6GJQsqaUBKTNV-1" vertex="1">
          <mxGeometry x="140" y="330" width="20" height="20" as="geometry" />
        </mxCell>
        <mxCell id="4y3r99vegQgZiO8xR9hq-25" value="5" style="ellipse;whiteSpace=wrap;html=1;aspect=fixed;" parent="WIyWlLk6GJQsqaUBKTNV-1" vertex="1">
          <mxGeometry x="140" y="460" width="20" height="20" as="geometry" />
        </mxCell>
        <mxCell id="4y3r99vegQgZiO8xR9hq-26" value="2" style="ellipse;whiteSpace=wrap;html=1;aspect=fixed;" parent="WIyWlLk6GJQsqaUBKTNV-1" vertex="1">
          <mxGeometry x="324" y="200" width="20" height="20" as="geometry" />
        </mxCell>
        <mxCell id="4y3r99vegQgZiO8xR9hq-27" value="4" style="ellipse;whiteSpace=wrap;html=1;aspect=fixed;" parent="WIyWlLk6GJQsqaUBKTNV-1" vertex="1">
          <mxGeometry x="324" y="330" width="20" height="20" as="geometry" />
        </mxCell>
        <mxCell id="4y3r99vegQgZiO8xR9hq-28" value="false" style="edgeStyle=orthogonalEdgeStyle;rounded=0;html=1;jettySize=auto;orthogonalLoop=1;fontSize=11;endArrow=block;endFill=0;endSize=8;strokeWidth=1;shadow=0;labelBackgroundColor=none;" parent="WIyWlLk6GJQsqaUBKTNV-1" target="4y3r99vegQgZiO8xR9hq-29" edge="1">
          <mxGeometry y="10" relative="1" as="geometry">
            <mxPoint as="offset" />
            <mxPoint x="270" y="470" as="sourcePoint" />
          </mxGeometry>
        </mxCell>
        <mxCell id="4y3r99vegQgZiO8xR9hq-29" value="回傳錯誤訊息&lt;br&gt;&quot;格式錯誤&quot;" style="rounded=1;whiteSpace=wrap;html=1;fontSize=12;glass=0;strokeWidth=1;shadow=0;fillColor=#d5e8d4;strokeColor=#82b366;" parent="WIyWlLk6GJQsqaUBKTNV-1" vertex="1">
          <mxGeometry x="320" y="450" width="150" height="40" as="geometry" />
        </mxCell>
        <mxCell id="4y3r99vegQgZiO8xR9hq-30" value="6" style="ellipse;whiteSpace=wrap;html=1;aspect=fixed;" parent="WIyWlLk6GJQsqaUBKTNV-1" vertex="1">
          <mxGeometry x="324" y="460" width="20" height="20" as="geometry" />
        </mxCell>
        <mxCell id="4y3r99vegQgZiO8xR9hq-34" value="" style="rounded=0;html=1;jettySize=auto;orthogonalLoop=1;fontSize=11;endArrow=block;endFill=0;endSize=8;strokeWidth=1;shadow=0;labelBackgroundColor=none;edgeStyle=orthogonalEdgeStyle;" parent="WIyWlLk6GJQsqaUBKTNV-1" source="4y3r99vegQgZiO8xR9hq-35" edge="1">
          <mxGeometry relative="1" as="geometry">
            <mxPoint x="220.0000000000001" y="650" as="targetPoint" />
          </mxGeometry>
        </mxCell>
        <mxCell id="4y3r99vegQgZiO8xR9hq-35" value="進入迴圈" style="rounded=1;whiteSpace=wrap;html=1;fontSize=12;glass=0;strokeWidth=1;shadow=0;fillColor=#d5e8d4;strokeColor=#82b366;" parent="WIyWlLk6GJQsqaUBKTNV-1" vertex="1">
          <mxGeometry x="160" y="560" width="120" height="40" as="geometry" />
        </mxCell>
        <mxCell id="4y3r99vegQgZiO8xR9hq-36" value="7" style="ellipse;whiteSpace=wrap;html=1;aspect=fixed;" parent="WIyWlLk6GJQsqaUBKTNV-1" vertex="1">
          <mxGeometry x="170" y="570" width="20" height="20" as="geometry" />
        </mxCell>
        <mxCell id="4y3r99vegQgZiO8xR9hq-37" value="8" style="ellipse;whiteSpace=wrap;html=1;aspect=fixed;" parent="WIyWlLk6GJQsqaUBKTNV-1" vertex="1">
          <mxGeometry x="160" y="660" width="20" height="20" as="geometry" />
        </mxCell>
        <mxCell id="4y3r99vegQgZiO8xR9hq-38" value="9" style="ellipse;whiteSpace=wrap;html=1;aspect=fixed;" parent="WIyWlLk6GJQsqaUBKTNV-1" vertex="1">
          <mxGeometry x="170" y="790" width="20" height="20" as="geometry" />
        </mxCell>
        <mxCell id="4y3r99vegQgZiO8xR9hq-45" value="回傳錯誤訊息&lt;br&gt;&quot;輸入正確&quot;" style="rounded=1;whiteSpace=wrap;html=1;fontSize=12;glass=0;strokeWidth=1;shadow=0;fillColor=#d5e8d4;strokeColor=#82b366;" parent="WIyWlLk6GJQsqaUBKTNV-1" vertex="1">
          <mxGeometry x="320" y="670" width="150" height="40" as="geometry" />
        </mxCell>
        <mxCell id="4y3r99vegQgZiO8xR9hq-46" value="true" style="edgeStyle=orthogonalEdgeStyle;rounded=0;html=1;jettySize=auto;orthogonalLoop=1;fontSize=11;endArrow=block;endFill=0;endSize=8;strokeWidth=1;shadow=0;labelBackgroundColor=none;entryX=0;entryY=0.5;entryDx=0;entryDy=0;" parent="WIyWlLk6GJQsqaUBKTNV-1" target="4y3r99vegQgZiO8xR9hq-45" edge="1">
          <mxGeometry y="10" relative="1" as="geometry">
            <mxPoint as="offset" />
            <mxPoint x="270" y="690" as="sourcePoint" />
            <mxPoint x="310" y="689.8299999999999" as="targetPoint" />
            <Array as="points" />
          </mxGeometry>
        </mxCell>
        <mxCell id="4y3r99vegQgZiO8xR9hq-47" value="10" style="ellipse;whiteSpace=wrap;html=1;aspect=fixed;" parent="WIyWlLk6GJQsqaUBKTNV-1" vertex="1">
          <mxGeometry x="324" y="680" width="20" height="20" as="geometry" />
        </mxCell>
        <mxCell id="4y3r99vegQgZiO8xR9hq-54" value="&lt;font style=&quot;font-size: 12px&quot;&gt;&amp;nbsp; &lt;br&gt;&amp;nbsp;測試路徑&lt;br&gt;&amp;nbsp; 1 → 2&lt;br&gt;&amp;nbsp; 1&amp;nbsp;→&amp;nbsp;3&amp;nbsp;→&amp;nbsp;4&lt;br&gt;&amp;nbsp; 1&amp;nbsp;→&amp;nbsp;3&amp;nbsp;→&amp;nbsp;5&amp;nbsp;→ 6&lt;br&gt;&amp;nbsp; 1&amp;nbsp;→&amp;nbsp;3&amp;nbsp;→&amp;nbsp;5&amp;nbsp;→&amp;nbsp;7&amp;nbsp;→&amp;nbsp;8&amp;nbsp;→&amp;nbsp;9&lt;br&gt;&amp;nbsp; 1&amp;nbsp;→&amp;nbsp;3&amp;nbsp;→&amp;nbsp;5&amp;nbsp;→&amp;nbsp;7&amp;nbsp;→&amp;nbsp;8&amp;nbsp;→&amp;nbsp;10&amp;nbsp;&amp;nbsp;&lt;br&gt;&lt;br&gt;&lt;/font&gt;" style="text;html=1;strokeColor=none;fillColor=none;align=left;verticalAlign=middle;whiteSpace=wrap;rounded=0;labelBackgroundColor=#ffffff;labelBorderColor=#000000;" parent="WIyWlLk6GJQsqaUBKTNV-1" vertex="1">
          <mxGeometry x="620" y="680" width="160" height="140" as="geometry" />
        </mxCell>
        <mxCell id="5oo8MyZbmjyOpmpGQxy9-0" value="&lt;font style=&quot;font-size: 16px;&quot;&gt;&lt;font style=&quot;font-size: 16px;&quot;&gt;*邏輯上不可能跑到（因為要迴圈都跑完才會跑到這邊&lt;/font&gt;）&lt;/font&gt;" style="text;html=1;strokeColor=none;fillColor=none;align=center;verticalAlign=middle;whiteSpace=wrap;rounded=0;" vertex="1" parent="WIyWlLk6GJQsqaUBKTNV-1">
          <mxGeometry x="310" y="610" width="250" height="70" as="geometry" />
        </mxCell>
      </root>
    </mxGraphModel>
  </diagram>
</mxfile>
